<mxfile host="app.diagrams.net" modified="2023-10-27T23:44:47.368Z" agent="Mozilla/5.0 (Windows NT 10.0; Win64; x64) AppleWebKit/537.36 (KHTML, like Gecko) Chrome/116.0.0.0 Safari/537.36 OPR/102.0.0.0" etag="4Q0kAWHqjZm0vbSIUJS1" version="22.0.8" type="github">
  <diagram id="C5RBs43oDa-KdzZeNtuy" name="Page-1">
    <mxGraphModel dx="4863" dy="2168" grid="1" gridSize="10" guides="1" tooltips="1" connect="1" arrows="1" fold="1" page="1" pageScale="1" pageWidth="827" pageHeight="1169" background="#00CCCC" math="0" shadow="0">
      <root>
        <mxCell id="WIyWlLk6GJQsqaUBKTNV-0" />
        <mxCell id="WIyWlLk6GJQsqaUBKTNV-1" parent="WIyWlLk6GJQsqaUBKTNV-0" />
        <mxCell id="NE7Iwfi9mVffFiecWesQ-9" style="edgeStyle=orthogonalEdgeStyle;rounded=0;orthogonalLoop=1;jettySize=auto;html=1;labelBackgroundColor=none;strokeColor=#0B4D6A;fontColor=default;" edge="1" parent="WIyWlLk6GJQsqaUBKTNV-1" source="NE7Iwfi9mVffFiecWesQ-1">
          <mxGeometry relative="1" as="geometry">
            <mxPoint x="-63" y="210" as="targetPoint" />
          </mxGeometry>
        </mxCell>
        <mxCell id="NE7Iwfi9mVffFiecWesQ-32" style="edgeStyle=orthogonalEdgeStyle;rounded=0;orthogonalLoop=1;jettySize=auto;html=1;entryX=0.5;entryY=0;entryDx=0;entryDy=0;strokeColor=#0B4D6A;" edge="1" parent="WIyWlLk6GJQsqaUBKTNV-1" source="NE7Iwfi9mVffFiecWesQ-0" target="NE7Iwfi9mVffFiecWesQ-5">
          <mxGeometry relative="1" as="geometry" />
        </mxCell>
        <mxCell id="NE7Iwfi9mVffFiecWesQ-34" style="edgeStyle=orthogonalEdgeStyle;rounded=0;orthogonalLoop=1;jettySize=auto;html=1;entryX=0.5;entryY=0;entryDx=0;entryDy=0;strokeColor=#0B4D6A;" edge="1" parent="WIyWlLk6GJQsqaUBKTNV-1" source="NE7Iwfi9mVffFiecWesQ-0" target="NE7Iwfi9mVffFiecWesQ-6">
          <mxGeometry relative="1" as="geometry" />
        </mxCell>
        <mxCell id="NE7Iwfi9mVffFiecWesQ-0" value="&lt;font style=&quot;font-size: 20px;&quot;&gt;Hiper ConveniÃªncia&lt;/font&gt;&lt;span style=&quot;font-weight: 700;&quot; class=&quot;OYPEnA text-decoration-none text-strikethrough-none white-space-prewrap&quot;&gt;&lt;/span&gt;" style="shape=process;whiteSpace=wrap;html=1;backgroundOutline=1;labelBackgroundColor=none;fillColor=#09555B;strokeColor=#BAC8D3;fontColor=#EEEEEE;direction=west;" vertex="1" parent="WIyWlLk6GJQsqaUBKTNV-1">
          <mxGeometry x="299.5" y="12" width="240" height="90" as="geometry" />
        </mxCell>
        <mxCell id="NE7Iwfi9mVffFiecWesQ-18" style="edgeStyle=orthogonalEdgeStyle;rounded=0;orthogonalLoop=1;jettySize=auto;html=1;exitX=0.5;exitY=1;exitDx=0;exitDy=0;entryX=0.5;entryY=0;entryDx=0;entryDy=0;labelBackgroundColor=none;strokeColor=#0B4D6A;fontColor=default;" edge="1" parent="WIyWlLk6GJQsqaUBKTNV-1" source="NE7Iwfi9mVffFiecWesQ-1" target="NE7Iwfi9mVffFiecWesQ-12">
          <mxGeometry relative="1" as="geometry" />
        </mxCell>
        <mxCell id="NE7Iwfi9mVffFiecWesQ-27" style="edgeStyle=orthogonalEdgeStyle;rounded=0;orthogonalLoop=1;jettySize=auto;html=1;entryX=0.5;entryY=0;entryDx=0;entryDy=0;strokeColor=#0B4D6A;fontColor=default;labelBackgroundColor=none;" edge="1" parent="WIyWlLk6GJQsqaUBKTNV-1" source="NE7Iwfi9mVffFiecWesQ-5" target="NE7Iwfi9mVffFiecWesQ-24">
          <mxGeometry relative="1" as="geometry" />
        </mxCell>
        <mxCell id="NE7Iwfi9mVffFiecWesQ-28" style="edgeStyle=orthogonalEdgeStyle;rounded=0;orthogonalLoop=1;jettySize=auto;html=1;entryX=0.5;entryY=0;entryDx=0;entryDy=0;strokeColor=#0B4D6A;fontColor=default;labelBackgroundColor=none;" edge="1" parent="WIyWlLk6GJQsqaUBKTNV-1" source="NE7Iwfi9mVffFiecWesQ-5" target="NE7Iwfi9mVffFiecWesQ-26">
          <mxGeometry relative="1" as="geometry" />
        </mxCell>
        <mxCell id="NE7Iwfi9mVffFiecWesQ-33" style="edgeStyle=orthogonalEdgeStyle;rounded=0;orthogonalLoop=1;jettySize=auto;html=1;entryX=0.5;entryY=0;entryDx=0;entryDy=0;strokeColor=#0B4D6A;" edge="1" parent="WIyWlLk6GJQsqaUBKTNV-1" source="NE7Iwfi9mVffFiecWesQ-5" target="NE7Iwfi9mVffFiecWesQ-25">
          <mxGeometry relative="1" as="geometry" />
        </mxCell>
        <mxCell id="NE7Iwfi9mVffFiecWesQ-36" style="edgeStyle=orthogonalEdgeStyle;rounded=0;orthogonalLoop=1;jettySize=auto;html=1;entryX=0.5;entryY=0;entryDx=0;entryDy=0;strokeColor=#0B4D6A;" edge="1" parent="WIyWlLk6GJQsqaUBKTNV-1" source="NE7Iwfi9mVffFiecWesQ-5" target="NE7Iwfi9mVffFiecWesQ-35">
          <mxGeometry relative="1" as="geometry" />
        </mxCell>
        <mxCell id="NE7Iwfi9mVffFiecWesQ-5" value="Geladeira" style="rounded=0;whiteSpace=wrap;html=1;labelBackgroundColor=none;fillColor=#09555B;strokeColor=#BAC8D3;fontColor=#EEEEEE;" vertex="1" parent="WIyWlLk6GJQsqaUBKTNV-1">
          <mxGeometry x="360" y="157" width="120" height="60" as="geometry" />
        </mxCell>
        <mxCell id="NE7Iwfi9mVffFiecWesQ-6" value="Produto" style="rounded=0;whiteSpace=wrap;html=1;labelBackgroundColor=none;fillColor=#09555B;strokeColor=#BAC8D3;fontColor=#EEEEEE;" vertex="1" parent="WIyWlLk6GJQsqaUBKTNV-1">
          <mxGeometry x="841" y="158" width="120" height="60" as="geometry" />
        </mxCell>
        <mxCell id="NE7Iwfi9mVffFiecWesQ-19" style="edgeStyle=orthogonalEdgeStyle;rounded=0;orthogonalLoop=1;jettySize=auto;html=1;exitX=0.5;exitY=1;exitDx=0;exitDy=0;entryX=0.5;entryY=0;entryDx=0;entryDy=0;labelBackgroundColor=none;strokeColor=#0B4D6A;fontColor=default;" edge="1" parent="WIyWlLk6GJQsqaUBKTNV-1" source="NE7Iwfi9mVffFiecWesQ-12" target="NE7Iwfi9mVffFiecWesQ-13">
          <mxGeometry relative="1" as="geometry" />
        </mxCell>
        <mxCell id="NE7Iwfi9mVffFiecWesQ-12" value="Cadastrar cliente&lt;span style=&quot;color: rgb(255, 255, 255); font-weight: 700;&quot; class=&quot;OYPEnA text-decoration-none text-strikethrough-none white-space-prewrap&quot;&gt;&lt;/span&gt;" style="rounded=1;whiteSpace=wrap;html=1;labelBackgroundColor=none;fillColor=#09555B;strokeColor=#BAC8D3;fontColor=#EEEEEE;" vertex="1" parent="WIyWlLk6GJQsqaUBKTNV-1">
          <mxGeometry x="-123" y="280" width="120" height="50" as="geometry" />
        </mxCell>
        <mxCell id="NE7Iwfi9mVffFiecWesQ-20" style="edgeStyle=orthogonalEdgeStyle;rounded=0;orthogonalLoop=1;jettySize=auto;html=1;exitX=0.5;exitY=1;exitDx=0;exitDy=0;labelBackgroundColor=none;strokeColor=#0B4D6A;fontColor=default;" edge="1" parent="WIyWlLk6GJQsqaUBKTNV-1" source="NE7Iwfi9mVffFiecWesQ-13" target="NE7Iwfi9mVffFiecWesQ-14">
          <mxGeometry relative="1" as="geometry" />
        </mxCell>
        <mxCell id="NE7Iwfi9mVffFiecWesQ-13" value="Cadastrar Reconhecimento Facial" style="rounded=1;whiteSpace=wrap;html=1;labelBackgroundColor=none;fillColor=#09555B;strokeColor=#BAC8D3;fontColor=#EEEEEE;" vertex="1" parent="WIyWlLk6GJQsqaUBKTNV-1">
          <mxGeometry x="-123" y="360" width="120" height="50" as="geometry" />
        </mxCell>
        <mxCell id="NE7Iwfi9mVffFiecWesQ-21" style="edgeStyle=orthogonalEdgeStyle;rounded=0;orthogonalLoop=1;jettySize=auto;html=1;exitX=0.5;exitY=1;exitDx=0;exitDy=0;entryX=0.5;entryY=0;entryDx=0;entryDy=0;labelBackgroundColor=none;strokeColor=#0B4D6A;fontColor=default;" edge="1" parent="WIyWlLk6GJQsqaUBKTNV-1" source="NE7Iwfi9mVffFiecWesQ-14" target="NE7Iwfi9mVffFiecWesQ-15">
          <mxGeometry relative="1" as="geometry" />
        </mxCell>
        <mxCell id="NE7Iwfi9mVffFiecWesQ-14" value="Ultilizar Reconhecimento Facial" style="rounded=1;whiteSpace=wrap;html=1;labelBackgroundColor=none;fillColor=#09555B;strokeColor=#BAC8D3;fontColor=#EEEEEE;" vertex="1" parent="WIyWlLk6GJQsqaUBKTNV-1">
          <mxGeometry x="-123" y="440" width="120" height="50" as="geometry" />
        </mxCell>
        <mxCell id="NE7Iwfi9mVffFiecWesQ-22" style="edgeStyle=orthogonalEdgeStyle;rounded=0;orthogonalLoop=1;jettySize=auto;html=1;exitX=0.5;exitY=1;exitDx=0;exitDy=0;entryX=0.5;entryY=0;entryDx=0;entryDy=0;labelBackgroundColor=none;strokeColor=#0B4D6A;fontColor=default;" edge="1" parent="WIyWlLk6GJQsqaUBKTNV-1" source="NE7Iwfi9mVffFiecWesQ-15" target="NE7Iwfi9mVffFiecWesQ-16">
          <mxGeometry relative="1" as="geometry" />
        </mxCell>
        <mxCell id="NE7Iwfi9mVffFiecWesQ-15" value="Pegar Produto" style="rounded=1;whiteSpace=wrap;html=1;labelBackgroundColor=none;fillColor=#09555B;strokeColor=#BAC8D3;fontColor=#EEEEEE;" vertex="1" parent="WIyWlLk6GJQsqaUBKTNV-1">
          <mxGeometry x="-123" y="520" width="120" height="50" as="geometry" />
        </mxCell>
        <mxCell id="NE7Iwfi9mVffFiecWesQ-16" value="Produto" style="rounded=1;whiteSpace=wrap;html=1;labelBackgroundColor=none;fillColor=#09555B;strokeColor=#BAC8D3;fontColor=#EEEEEE;" vertex="1" parent="WIyWlLk6GJQsqaUBKTNV-1">
          <mxGeometry x="-123" y="600" width="120" height="50" as="geometry" />
        </mxCell>
        <mxCell id="NE7Iwfi9mVffFiecWesQ-24" value="Aviso de porta aberta por muito tempo" style="rounded=1;whiteSpace=wrap;html=1;labelBackgroundColor=none;fillColor=#09555B;strokeColor=#BAC8D3;fontColor=#EEEEEE;" vertex="1" parent="WIyWlLk6GJQsqaUBKTNV-1">
          <mxGeometry x="82" y="280" width="120" height="50" as="geometry" />
        </mxCell>
        <mxCell id="NE7Iwfi9mVffFiecWesQ-25" value="Controle de Temperatura" style="rounded=1;whiteSpace=wrap;html=1;labelBackgroundColor=none;fillColor=#09555B;strokeColor=#BAC8D3;fontColor=#EEEEEE;" vertex="1" parent="WIyWlLk6GJQsqaUBKTNV-1">
          <mxGeometry x="680" y="280" width="120" height="50" as="geometry" />
        </mxCell>
        <mxCell id="NE7Iwfi9mVffFiecWesQ-43" style="edgeStyle=orthogonalEdgeStyle;rounded=0;orthogonalLoop=1;jettySize=auto;html=1;strokeColor=#0B4D6A;" edge="1" parent="WIyWlLk6GJQsqaUBKTNV-1" source="NE7Iwfi9mVffFiecWesQ-26" target="NE7Iwfi9mVffFiecWesQ-37">
          <mxGeometry relative="1" as="geometry" />
        </mxCell>
        <mxCell id="NE7Iwfi9mVffFiecWesQ-45" style="edgeStyle=orthogonalEdgeStyle;rounded=0;orthogonalLoop=1;jettySize=auto;html=1;entryX=0.5;entryY=0;entryDx=0;entryDy=0;strokeColor=#0B4D6A;" edge="1" parent="WIyWlLk6GJQsqaUBKTNV-1" source="NE7Iwfi9mVffFiecWesQ-26" target="NE7Iwfi9mVffFiecWesQ-39">
          <mxGeometry relative="1" as="geometry" />
        </mxCell>
        <mxCell id="NE7Iwfi9mVffFiecWesQ-49" style="edgeStyle=orthogonalEdgeStyle;rounded=0;orthogonalLoop=1;jettySize=auto;html=1;entryX=0.5;entryY=0;entryDx=0;entryDy=0;strokeColor=#0B4D6A;" edge="1" parent="WIyWlLk6GJQsqaUBKTNV-1" source="NE7Iwfi9mVffFiecWesQ-26" target="NE7Iwfi9mVffFiecWesQ-38">
          <mxGeometry relative="1" as="geometry" />
        </mxCell>
        <mxCell id="NE7Iwfi9mVffFiecWesQ-26" value="cadastrar produto" style="rounded=1;whiteSpace=wrap;html=1;labelBackgroundColor=none;fillColor=#09555B;strokeColor=#BAC8D3;fontColor=#EEEEEE;" vertex="1" parent="WIyWlLk6GJQsqaUBKTNV-1">
          <mxGeometry x="280" y="280" width="121" height="50" as="geometry" />
        </mxCell>
        <mxCell id="NE7Iwfi9mVffFiecWesQ-31" value="" style="edgeStyle=orthogonalEdgeStyle;rounded=0;orthogonalLoop=1;jettySize=auto;html=1;labelBackgroundColor=none;strokeColor=#0B4D6A;fontColor=default;" edge="1" parent="WIyWlLk6GJQsqaUBKTNV-1" source="NE7Iwfi9mVffFiecWesQ-0" target="NE7Iwfi9mVffFiecWesQ-1">
          <mxGeometry relative="1" as="geometry">
            <mxPoint x="100" y="210" as="targetPoint" />
            <mxPoint x="300" y="57" as="sourcePoint" />
          </mxGeometry>
        </mxCell>
        <mxCell id="NE7Iwfi9mVffFiecWesQ-1" value="Cliente" style="rounded=0;whiteSpace=wrap;html=1;labelBackgroundColor=none;fillColor=#09555B;strokeColor=#BAC8D3;fontColor=#EEEEEE;" vertex="1" parent="WIyWlLk6GJQsqaUBKTNV-1">
          <mxGeometry x="-123" y="158" width="120" height="60" as="geometry" />
        </mxCell>
        <mxCell id="NE7Iwfi9mVffFiecWesQ-35" value="cadastrar produto" style="rounded=1;whiteSpace=wrap;html=1;labelBackgroundColor=none;fillColor=#09555B;strokeColor=#BAC8D3;fontColor=#EEEEEE;" vertex="1" parent="WIyWlLk6GJQsqaUBKTNV-1">
          <mxGeometry x="478" y="280" width="121" height="50" as="geometry" />
        </mxCell>
        <mxCell id="NE7Iwfi9mVffFiecWesQ-37" value="Valor do produto" style="rounded=1;whiteSpace=wrap;html=1;labelBackgroundColor=none;fillColor=#09555B;strokeColor=#BAC8D3;fontColor=#EEEEEE;" vertex="1" parent="WIyWlLk6GJQsqaUBKTNV-1">
          <mxGeometry x="289.5" y="360" width="101" height="40" as="geometry" />
        </mxCell>
        <mxCell id="NE7Iwfi9mVffFiecWesQ-46" style="edgeStyle=orthogonalEdgeStyle;rounded=0;orthogonalLoop=1;jettySize=auto;html=1;strokeColor=#0B4D6A;" edge="1" parent="WIyWlLk6GJQsqaUBKTNV-1" source="NE7Iwfi9mVffFiecWesQ-38" target="NE7Iwfi9mVffFiecWesQ-40">
          <mxGeometry relative="1" as="geometry" />
        </mxCell>
        <mxCell id="NE7Iwfi9mVffFiecWesQ-38" value="Validade do produto" style="rounded=1;whiteSpace=wrap;html=1;labelBackgroundColor=none;fillColor=#09555B;strokeColor=#BAC8D3;fontColor=#EEEEEE;" vertex="1" parent="WIyWlLk6GJQsqaUBKTNV-1">
          <mxGeometry x="160.5" y="360" width="101" height="40" as="geometry" />
        </mxCell>
        <mxCell id="NE7Iwfi9mVffFiecWesQ-39" value="CÃ³digo do Produto" style="rounded=1;whiteSpace=wrap;html=1;labelBackgroundColor=none;fillColor=#09555B;strokeColor=#BAC8D3;fontColor=#EEEEEE;" vertex="1" parent="WIyWlLk6GJQsqaUBKTNV-1">
          <mxGeometry x="419.5" y="360" width="101" height="40" as="geometry" />
        </mxCell>
        <mxCell id="NE7Iwfi9mVffFiecWesQ-47" style="edgeStyle=orthogonalEdgeStyle;rounded=0;orthogonalLoop=1;jettySize=auto;html=1;strokeColor=#0B4D6A;" edge="1" parent="WIyWlLk6GJQsqaUBKTNV-1" source="NE7Iwfi9mVffFiecWesQ-40" target="NE7Iwfi9mVffFiecWesQ-42">
          <mxGeometry relative="1" as="geometry" />
        </mxCell>
        <mxCell id="NE7Iwfi9mVffFiecWesQ-40" value="DetecÃ§Ã£o de produtos perto da validade" style="rounded=1;whiteSpace=wrap;html=1;labelBackgroundColor=none;fillColor=#09555B;strokeColor=#BAC8D3;fontColor=#EEEEEE;" vertex="1" parent="WIyWlLk6GJQsqaUBKTNV-1">
          <mxGeometry x="166" y="420" width="90" height="30" as="geometry" />
        </mxCell>
        <mxCell id="NE7Iwfi9mVffFiecWesQ-42" value="NotificaÃ§Ã£o de produto vencido" style="rounded=1;whiteSpace=wrap;html=1;labelBackgroundColor=none;fillColor=#09555B;strokeColor=#BAC8D3;fontColor=#EEEEEE;" vertex="1" parent="WIyWlLk6GJQsqaUBKTNV-1">
          <mxGeometry x="166" y="470" width="90" height="30" as="geometry" />
        </mxCell>
        <mxCell id="NE7Iwfi9mVffFiecWesQ-53" style="edgeStyle=orthogonalEdgeStyle;rounded=0;orthogonalLoop=1;jettySize=auto;html=1;exitX=0.5;exitY=1;exitDx=0;exitDy=0;entryX=0.5;entryY=0;entryDx=0;entryDy=0;labelBackgroundColor=none;strokeColor=#0B4D6A;fontColor=default;" edge="1" parent="WIyWlLk6GJQsqaUBKTNV-1" target="NE7Iwfi9mVffFiecWesQ-55">
          <mxGeometry relative="1" as="geometry">
            <mxPoint x="901" y="225" as="sourcePoint" />
          </mxGeometry>
        </mxCell>
        <mxCell id="NE7Iwfi9mVffFiecWesQ-54" style="edgeStyle=orthogonalEdgeStyle;rounded=0;orthogonalLoop=1;jettySize=auto;html=1;exitX=0.5;exitY=1;exitDx=0;exitDy=0;entryX=0.5;entryY=0;entryDx=0;entryDy=0;labelBackgroundColor=none;strokeColor=#0B4D6A;fontColor=default;" edge="1" parent="WIyWlLk6GJQsqaUBKTNV-1" source="NE7Iwfi9mVffFiecWesQ-55" target="NE7Iwfi9mVffFiecWesQ-56">
          <mxGeometry relative="1" as="geometry" />
        </mxCell>
        <mxCell id="NE7Iwfi9mVffFiecWesQ-55" value="Cadastrar CÃ³digo do produto" style="rounded=1;whiteSpace=wrap;html=1;labelBackgroundColor=none;fillColor=#09555B;strokeColor=#BAC8D3;fontColor=#EEEEEE;" vertex="1" parent="WIyWlLk6GJQsqaUBKTNV-1">
          <mxGeometry x="841" y="280" width="120" height="50" as="geometry" />
        </mxCell>
        <mxCell id="NE7Iwfi9mVffFiecWesQ-56" value="Cadastrar Valor do Produto" style="rounded=1;whiteSpace=wrap;html=1;labelBackgroundColor=none;fillColor=#09555B;strokeColor=#BAC8D3;fontColor=#EEEEEE;" vertex="1" parent="WIyWlLk6GJQsqaUBKTNV-1">
          <mxGeometry x="841" y="360" width="120" height="50" as="geometry" />
        </mxCell>
        <mxCell id="NE7Iwfi9mVffFiecWesQ-61" value="Cadastrar Validade" style="rounded=1;whiteSpace=wrap;html=1;labelBackgroundColor=none;fillColor=#09555B;strokeColor=#BAC8D3;fontColor=#EEEEEE;" vertex="1" parent="WIyWlLk6GJQsqaUBKTNV-1">
          <mxGeometry x="841" y="430" width="120" height="50" as="geometry" />
        </mxCell>
      </root>
    </mxGraphModel>
  </diagram>
</mxfile>
